<?xml version="1.0" encoding="utf-8"?>
<!-- Generator: Adobe Illustrator 21.0.0, SVG Export Plug-In . SVG Version: 6.00 Build 0)  -->
<svg version="1.1" id="Layer_1" xmlns="http://www.w3.org/2000/svg" xmlns:xlink="http://www.w3.org/1999/xlink" x="0px" y="0px"
	 viewBox="0 0 119.7 141" style="enable-background:new 0 0 119.7 141;" xml:space="preserve">
<style type="text/css">
	.st0{fill:#536972;}
	.st1{fill:#FFFFFF;}
</style>
<g id="AUT-Logo" transform="translate(-2299 2260)">
	<rect id="Rectangle_4" x="2299" y="-2260" width="119.7" height="141"/>
	<rect id="Rectangle_5" x="2299" y="-2139.8" class="st0" width="119.7" height="20.8"/>
	<g id="Group_1" transform="translate(323.868 97.551)">
		<path id="Path_1" class="st1" d="M1999.7-2254.2c0,2.9-1.4,3.5-3.3,3.5c-2.1,0-3.4-0.6-3.4-3.5v-5.6h1.9v5.2
			c0,1.6,0.4,2.1,1.5,2.1c1,0,1.5-0.5,1.5-2v-5.3h1.8L1999.7-2254.2z"/>
		<path id="Path_2" class="st1" d="M2010-2250.8h-1.8l-3.3-5.2v5.2h-1.8v-8.9h1.6l3.5,5.5v-5.5h1.8L2010-2250.8z"/>
		<path id="Path_3" class="st1" d="M2015.4-2250.8h-1.9v-8.9h1.9V-2250.8z"/>
		<path id="Path_4" class="st1" d="M2023.1-2250.8h-2.1l-2.9-8.9h2l2,6.7l2.1-6.7h1.9L2023.1-2250.8z"/>
		<path id="Path_5" class="st1" d="M2034.2-2258h-3.7v1.7h2.5v1.7h-2.5v2h3.8v1.8h-5.7v-8.9h5.5V-2258z"/>
		<path id="Path_6" class="st1" d="M2043.5-2257c0.1,1.1-0.5,2.1-1.6,2.5l2.1,3.6h-2.1l-1.9-3.4h-0.7v3.4h-1.9v-8.9h2.7
			C2042.9-2259.8,2043.5-2258.8,2043.5-2257z M2039.3-2258v2.1h1c0.9,0,1.3-0.3,1.3-1c0-0.8-0.3-1.1-1.3-1.1H2039.3z"/>
		<path id="Path_7" class="st1" d="M2051.9-2259.6l-0.4,1.7c-0.7-0.2-1.5-0.4-2.2-0.4c-0.8,0-1.2,0.2-1.2,0.9c0,0.5,0.2,0.8,1.5,1.1
			c2,0.5,2.7,1.3,2.7,2.9c0,1.6-0.8,2.7-2.9,2.7c-1.1,0-2.2-0.1-3.2-0.5l0.4-1.7c0.8,0.3,1.7,0.5,2.6,0.5c0.8,0,1.1-0.3,1.1-0.9
			c0-0.6-0.4-0.8-1.6-1.1c-2-0.5-2.5-1.4-2.5-2.8c0-1.8,0.8-2.8,3.1-2.8C2050.3-2260,2051.1-2259.8,2051.9-2259.6z"/>
		<path id="Path_8" class="st1" d="M2057.2-2250.8h-1.9v-8.9h1.9V-2250.8z"/>
		<path id="Path_9" class="st1" d="M2067.2-2258h-2.7v7.2h-1.8v-7.2h-2.7v-1.8h7.3V-2258z"/>
		<path id="Path_10" class="st1" d="M2074-2254.5v3.6h-1.9v-3.6l-3-5.3h2l1.9,3.3l2-3.3h2L2074-2254.5z"/>
	</g>
	<g id="Group_2" transform="translate(324.365 127.117)">
		<path id="Path_11" class="st1" d="M1998.6-2252.6h-1.5l-2.7-4.3v4.3h-1.5v-7.3h1.3l2.9,4.5v-4.5h1.5L1998.6-2252.6L1998.6-2252.6z
			"/>
		<path id="Path_12" class="st1" d="M2006-2258.5h-3v1.4h2.1v1.4h-2.1v1.6h3.1v1.4h-4.7v-7.3h4.5V-2258.5z"/>
		<path id="Path_13" class="st1" d="M2015.8-2252.6h-1.7l-1.2-4.7l-1.3,4.7h-1.7l-1.8-7.3h1.6l1.2,5.2l1.3-5.2h1.6l1.3,5.2l1.3-5.2
			h1.5L2015.8-2252.6z"/>
		<path id="Path_14" class="st1" d="M2028.5-2258.9l-3.1,4.8h3.5v1.4h-5.5v-1.1l3.2-4.8h-3.1v-1.4h5L2028.5-2258.9L2028.5-2258.9z"
			/>
		<path id="Path_15" class="st1" d="M2035.9-2258.5h-3v1.4h2.1v1.4h-2.1v1.6h3.1v1.4h-4.6v-7.3h4.5L2035.9-2258.5L2035.9-2258.5z"/>
		<path id="Path_16" class="st1" d="M2044.4-2252.6h-1.6l-0.5-1.6h-2.2l-0.5,1.6h-1.6l2.3-7.4h1.7L2044.4-2252.6z M2040.4-2255.6
			h1.6l-0.8-2.9L2040.4-2255.6z"/>
		<path id="Path_17" class="st1" d="M2048.2-2254.1h3.1v1.4h-4.7v-7.3h1.5V-2254.1z"/>
		<path id="Path_18" class="st1" d="M2059.5-2252.6h-1.6l-0.5-1.6h-2.2l-0.5,1.6h-1.6l2.3-7.4h1.7L2059.5-2252.6z M2055.5-2255.6
			h1.6l-0.8-2.9L2055.5-2255.6z"/>
		<path id="Path_19" class="st1" d="M2067.5-2252.6h-1.5l-2.7-4.3v4.3h-1.5v-7.3h1.3l2.9,4.5v-4.5h1.5L2067.5-2252.6L2067.5-2252.6z
			"/>
		<path id="Path_20" class="st1" d="M2076-2256.3c0,2.7-0.9,3.7-3.2,3.7h-2.4v-7.3h2.4C2075-2260,2076-2259,2076-2256.3z
			 M2071.9-2258.6v4.5h0.7c1.4,0,1.8-0.4,1.8-2.3c0-1.7-0.4-2.2-1.6-2.2L2071.9-2258.6z"/>
	</g>
	<g id="Group_3" transform="translate(323.791 47.766)">
		<path id="Path_21" class="st1" d="M2007.2-2237.4l0.6,2.9h-1.1L2007.2-2237.4z M2010.2-2232.4l-3-15.9h-0.1l-3,15.9H2010.2z"/>
		<path id="Path_22" class="st1" d="M2012.6-2220.1l-1.2-6.4h-8.3l-1.2,6.4h-6.8l8.5-37.8h7.6l8.5,37.8H2012.6z M2013.2-2258.4
			c-0.2-0.9-1.1-1.6-2-1.6h-7.6c-1,0-1.8,0.7-2,1.6l-8.5,37.8c-0.2,1.1,0.5,2.2,1.6,2.5c0.1,0,0.3,0,0.4,0h6.8c1,0,1.8-0.7,2-1.7
			l0.9-4.7h4.9l0.9,4.7c0.2,1,1,1.7,2,1.7h7.1c1.1,0,2.1-0.9,2.1-2.1c0-0.2,0-0.3,0-0.4L2013.2-2258.4z"/>
		<path id="Path_23" class="st1" d="M2047.1-2226.1l-5.9,5.9h-9.4l-5.9-5.9v-31.9h7.1v31.4h7.1v-31.4h7.1L2047.1-2226.1z
			 M2047.1-2260h-7.1c-0.5,0-1.1,0.2-1.5,0.6c-0.4,0.4-0.6,0.9-0.6,1.5v29.4h-3v-29.3c0-0.5-0.2-1.1-0.6-1.5
			c-0.4-0.4-0.9-0.6-1.5-0.6h-7.1c-1.1,0-2,0.9-2.1,2c0,0,0,0,0,0.1v31.9c0,0.5,0.2,1.1,0.6,1.5l5.9,5.9c0.4,0.4,0.9,0.6,1.5,0.6
			h9.4c0.6,0,1.1-0.2,1.5-0.6l5.9-5.9c0.4-0.4,0.6-0.9,0.6-1.5v-31.9c0-0.5-0.2-1.1-0.6-1.5C2048.1-2259.8,2047.6-2260,2047.1-2260"
			/>
		<path id="Path_24" class="st1" d="M2075.1-2251.6h-7.1v31.4h-7.1v-31.4h-7.1v-6.4h21.3L2075.1-2251.6L2075.1-2251.6z
			 M2076.6-2259.4c-0.4-0.4-0.9-0.6-1.5-0.6h-21.2c-0.5,0-1.1,0.2-1.5,0.6c-0.4,0.4-0.6,0.9-0.6,1.5v6.4c0,0.5,0.2,1.1,0.6,1.5
			c0.4,0.4,0.9,0.6,1.5,0.6h5v29.3c0,0.5,0.2,1.1,0.6,1.5c0.4,0.4,0.9,0.6,1.5,0.6h7.1c0.5,0,1.1-0.2,1.5-0.6
			c0.4-0.4,0.6-0.9,0.6-1.5v-29.4h5c0.5,0,1.1-0.2,1.5-0.6c0.4-0.4,0.6-0.9,0.6-1.5v-6.4C2077.2-2258.5,2077-2259,2076.6-2259.4"/>
	</g>
</g>
</svg>
